<svg xmlns="http://www.w3.org/2000/svg" xmlns:xlink="http://www.w3.org/1999/xlink" xmlns:serif="http://www.serif.com/" width="100%" height="100%" viewBox="0 0 986 157" xml:space="preserve" style="fill-rule:evenodd;clip-rule:evenodd;stroke-linejoin:round;stroke-miterlimit:2;">    <g transform="matrix(1,0,0,1,-108,-1940)">        <g id="awwwards-logo" transform="matrix(1,0,0,1,5.52626,46.1956)">            <g transform="matrix(0.540569,0,0,0.540569,100.238,1891.74)">                <path d="M1717.06,116.854L1687.14,144.313C1677.85,132.188 1664.52,126.521 1653.18,126.521C1643.48,126.521 1634.6,132.188 1634.6,143.479C1634.6,152.354 1641.89,158.813 1653.98,163.271C1681.85,173.354 1727.52,182.271 1727.52,225.896C1727.52,262.646 1699.23,293.771 1655.18,293.771C1612.77,293.771 1584.48,263.854 1574.39,238.813L1614.39,217.396C1621.68,237.188 1635.39,250.938 1655.18,250.938C1670.56,250.938 1680.23,244.062 1680.23,229.104C1680.23,212.146 1653.98,208.479 1629.31,197.979C1607.1,188.688 1588.1,174.563 1588.1,143.021C1588.1,111.521 1613.56,83.646 1653.14,83.646C1680.68,83.729 1704.56,97.063 1717.06,116.854Z" style="fill:rgb(71,75,100);fill-rule:nonzero;"></path>            </g>            <g transform="matrix(0.540569,0,0,0.540569,100.238,1891.74)">                <path d="M987.438,140.729C993.896,107.271 1023.31,84.313 1064.81,84.313C1113.15,84.313 1150.23,104.438 1150.23,169.312L1150.23,290.604L1109.15,290.604L1103.9,264.813C1089.81,282.146 1070.44,293.812 1041.44,293.812C1006.77,293.812 979.813,272.479 979.813,232.187C979.813,191.896 1015.27,165.729 1066.44,165.729L1100.27,165.729L1100.27,156.854C1100.27,134.312 1083.35,127.021 1064.81,127.021C1050.73,127.021 1036.19,131.437 1029.77,150.396L987.438,140.729ZM1053.1,251.104C1076.06,251.104 1100.23,235.396 1100.23,209.187L1100.23,205.146L1066.77,205.146C1045.44,205.146 1032.1,213.187 1032.1,231.354C1032.15,241.021 1039.02,251.104 1053.1,251.104Z" style="fill:rgb(71,75,100);fill-rule:nonzero;"></path>            </g>            <g transform="matrix(0.540569,0,0,0.540569,100.238,1891.74)">                <path d="M1195.48,290.646L1195.48,87.521L1245.44,87.521L1245.44,120.562C1259.94,96.812 1282.52,84.312 1305.48,84.312C1314.36,84.312 1321.98,85.937 1330.06,88.354L1320.81,134.687C1314.77,131.062 1308.31,129.062 1299.86,129.062C1270.86,129.062 1245.48,152.812 1245.48,218.521L1245.48,290.646L1195.48,290.646Z" style="fill:rgb(71,75,100);fill-rule:nonzero;"></path>            </g>            <g transform="matrix(0.540569,0,0,0.540569,100.238,1891.74)">                <path d="M1436.98,84.313C1457.52,84.313 1477.27,94.771 1486.15,106.063L1486.15,5.354L1536.11,5.354L1536.11,290.604L1486.15,290.604L1486.15,269.646C1480.52,280.104 1461.98,293.813 1436.98,293.813C1375.73,293.813 1344.31,251.521 1344.31,189.063C1344.31,126.604 1375.73,84.313 1436.98,84.313ZM1443.81,251.104C1470.02,251.104 1490.56,229.354 1490.56,189.063C1490.56,148.771 1470.02,127.021 1443.81,127.021C1417.61,127.021 1396.69,148.771 1396.69,189.063C1396.69,229.354 1417.65,251.104 1443.81,251.104Z" style="fill:rgb(71,75,100);fill-rule:nonzero;"></path>            </g>            <g transform="matrix(0.540569,0,0,0.540569,100.238,1891.74)">                <path d="M1792.81,225.313C1812.14,225.312 1826.64,239.813 1826.64,259.146C1826.64,278.479 1812.14,292.979 1792.81,292.979C1773.48,292.979 1758.98,278.479 1758.98,259.146C1758.98,239.812 1773.48,225.312 1792.81,225.312L1792.81,225.313Z" style="fill:rgb(71,75,100);fill-rule:nonzero;"></path>            </g>            <g transform="matrix(0.540569,0,0,0.540569,100.238,1891.74)">                <path d="M12.979,140.729C19.438,107.271 48.854,84.313 90.354,84.313C138.688,84.313 175.771,104.438 175.771,169.312L175.771,290.604L134.688,290.604L129.438,264.813C115.354,282.146 95.979,293.812 66.979,293.812C32.313,293.812 5.354,272.479 5.354,232.187C5.354,191.896 40.813,165.729 91.979,165.729L125.813,165.729L125.813,156.854C125.813,134.312 108.896,127.021 90.354,127.021C76.271,127.021 61.729,131.437 55.313,150.396L12.979,140.729ZM78.646,251.104C101.604,251.104 125.771,235.396 125.771,209.187L125.771,205.146L92.313,205.146C70.979,205.146 57.646,213.187 57.646,231.354C57.688,241.021 64.521,251.104 78.646,251.104Z" style="fill:rgb(71,75,100);fill-rule:nonzero;"></path>            </g>            <g transform="matrix(0.540569,0,0,0.540569,100.238,1891.74)">                <path d="M484.146,87.521L419.271,290.562L374.938,290.562L339.896,159.229L304.854,290.562L260.521,290.562L195.646,87.521L246.021,87.521L282.271,226.937L316.521,87.521L363.271,87.521L397.521,226.937L433.771,87.521L484.146,87.521Z" style="fill:rgb(71,75,100);fill-rule:nonzero;"></path>            </g>            <g transform="matrix(0.540569,0,0,0.540569,100.238,1891.74)">                <path d="M675.229,87.521L638.979,226.937L604.729,87.521L557.979,87.521L523.729,226.937L495.229,145.979L492.271,155.271L475.646,207.396L501.979,290.604L546.313,290.604L581.354,159.229L616.396,290.604L660.729,290.604L725.604,87.521L675.229,87.521Z" style="fill:rgb(71,75,100);fill-rule:nonzero;"></path>            </g>            <g transform="matrix(0.540569,0,0,0.540569,100.238,1891.74)">                <path d="M916.688,87.521L880.438,226.937L846.188,87.521L799.479,87.521L765.229,226.937L736.729,145.979L733.729,155.271L717.104,207.396L743.438,290.604L787.771,290.604L822.813,159.229L857.896,290.604L902.188,290.604L967.063,87.521L916.688,87.521Z" style="fill:rgb(71,75,100);fill-rule:nonzero;"></path>            </g>        </g>    </g></svg>