<svg xmlns="http://www.w3.org/2000/svg" xmlns:xlink="http://www.w3.org/1999/xlink" xmlns:serif="http://www.serif.com/" width="100%" height="100%" viewBox="0 0 999 147" xml:space="preserve" style="fill-rule:evenodd;clip-rule:evenodd;stroke-linejoin:round;stroke-miterlimit:2;">    <g transform="matrix(1,0,0,1,-108,-1745)">        <g id="css-design-logo" transform="matrix(0.351212,0,0,0.351212,105.61,1742.08)">            <g id="Group">                <path id="Shape" d="M290.275,287.55L149.479,148.317L290.275,9.083L149.479,9.083L8.679,148.317L79.079,218.717L219.875,356.383L290.275,287.55Z" style="fill:rgb(71,75,100);fill-rule:nonzero;"></path>                <path id="Shape1" serif:id="Shape" d="M390.396,218.717L319.996,148.317L249.6,79.483L180.767,148.317L319.996,287.55L179.2,426.783L319.996,426.783L390.396,357.95L460.796,287.55L390.396,218.717Z" style="fill:rgb(71,75,100);fill-rule:nonzero;"></path>            </g>            <g id="Group1" serif:id="Group">                <path id="Shape2" serif:id="Shape" d="M636.008,148.317C615.671,148.317 598.463,154.575 585.946,168.654C573.433,182.733 567.175,201.508 567.175,226.538C567.175,251.567 573.433,270.342 584.383,284.421C596.896,298.5 612.542,304.758 634.442,304.758C648.525,304.758 662.604,301.629 679.813,296.938L679.813,317.275C665.733,321.967 650.088,325.096 631.317,325.096C603.154,325.096 581.254,317.275 565.608,300.067C549.967,282.858 542.142,257.825 542.142,226.537C542.142,206.2 545.271,188.992 553.096,174.912C560.917,160.833 571.867,148.317 584.383,140.496C596.896,132.675 614.108,127.979 634.442,127.979C654.779,127.979 671.988,131.108 687.633,138.929L678.246,157.704C665.733,153.012 651.654,148.317 636.008,148.317Z" style="fill:rgb(71,75,100);fill-rule:nonzero;"></path>                <path id="Shape3" serif:id="Shape" d="M831.558,271.904C831.558,289.113 825.3,301.629 812.788,311.017C800.271,320.404 784.625,325.096 762.725,325.096C739.258,325.096 722.05,321.967 709.533,315.708L709.533,293.808C717.358,296.938 726.742,300.067 734.567,301.629C742.388,303.196 753.338,304.758 762.725,304.758C778.371,304.758 789.321,301.629 795.579,296.937C803.4,290.679 806.529,282.858 806.529,273.471C806.529,267.213 804.963,260.954 801.833,257.825C798.708,253.133 794.013,250.004 787.754,245.313C781.5,242.183 772.113,237.487 759.596,232.796C742.388,226.538 728.308,218.717 722.05,209.329C714.229,199.942 711.1,188.992 711.1,174.913C711.1,160.833 717.358,148.317 728.308,138.929C739.258,129.546 754.904,126.417 772.113,126.417C790.883,126.417 808.092,129.546 825.3,137.367L819.046,156.138C803.4,149.883 787.754,146.754 772.113,146.754C759.596,146.754 751.775,149.883 743.954,154.575C737.696,159.267 734.567,167.092 734.567,176.475C734.567,182.733 736.129,188.992 737.696,192.121C740.825,196.813 743.954,199.942 750.208,203.071C756.467,206.2 764.288,210.892 776.804,215.588C797.142,223.408 811.221,231.229 819.046,239.054C828.429,248.438 831.558,259.392 831.558,271.904Z" style="fill:rgb(71,75,100);fill-rule:nonzero;"></path>                <path id="Shape4" serif:id="Shape" d="M980.179,271.904C980.179,289.113 973.921,301.629 961.404,311.017C948.892,320.404 933.246,325.096 911.346,325.096C887.879,325.096 870.671,321.967 858.154,315.708L858.154,293.808C865.975,296.938 875.363,300.067 883.183,301.629C891.008,303.196 901.958,304.758 911.346,304.758C926.988,304.758 937.938,301.629 944.196,296.937C952.017,290.679 955.146,282.858 955.146,273.471C955.146,267.213 953.583,260.954 950.454,257.825C947.325,253.133 942.633,250.004 936.375,245.313C930.117,242.183 920.729,237.487 908.217,232.796C891.008,226.538 876.925,218.717 870.671,209.329C862.846,199.942 859.717,188.992 859.717,174.913C859.717,160.833 865.975,148.317 876.925,138.929C887.879,129.546 903.521,126.417 920.729,126.417C939.504,126.417 956.713,129.546 973.921,137.367L967.663,156.138C952.017,149.883 936.375,146.754 920.729,146.754C908.217,146.754 900.392,149.883 892.571,154.575C886.312,159.267 883.183,167.092 883.183,176.475C883.183,182.733 884.75,188.992 886.313,192.121C889.442,196.813 892.571,199.942 898.829,203.071C905.088,206.2 912.908,210.892 925.425,215.588C945.763,223.408 959.842,231.229 967.663,239.054C975.483,248.438 980.179,259.392 980.179,271.904Z" style="fill:rgb(71,75,100);fill-rule:nonzero;"></path>                <path id="Shape5" serif:id="Shape" d="M1175.73,223.408C1175.73,254.696 1166.34,279.729 1149.13,296.937C1131.93,314.146 1106.9,323.529 1074.04,323.529L1011.47,323.529L1011.47,131.108L1077.17,131.108C1108.46,131.108 1131.93,138.929 1149.13,154.575C1166.34,170.221 1175.73,193.683 1175.73,223.408ZM1122.54,224.975C1122.54,207.767 1119.41,193.683 1111.59,185.863C1105.33,178.042 1094.38,173.346 1080.3,173.346L1064.65,173.346L1064.65,281.292L1075.61,281.292C1091.25,281.292 1102.2,276.6 1110.03,267.213C1119.41,257.825 1122.54,243.746 1122.54,224.975Z" style="fill:rgb(71,75,100);fill-rule:nonzero;"></path>                <path id="Shape6" serif:id="Shape" d="M1278.98,326.658C1253.95,326.658 1235.18,320.404 1221.1,306.321C1207.02,293.808 1200.76,275.033 1200.76,250.004C1200.76,224.975 1207.02,206.2 1219.53,192.121C1232.05,178.042 1250.82,171.783 1274.29,171.783C1296.19,171.783 1313.4,178.042 1325.91,188.992C1338.43,199.942 1344.68,217.15 1344.68,239.054L1344.68,262.521L1252.38,262.521C1252.38,270.342 1255.51,276.6 1261.77,282.858C1268.03,287.55 1275.85,290.679 1285.24,290.679C1294.63,290.679 1302.45,289.112 1310.27,287.55C1318.09,285.983 1325.91,282.858 1335.3,278.162L1335.3,315.708C1327.48,320.404 1319.65,321.967 1310.27,323.529C1300.88,325.096 1291.5,326.658 1278.98,326.658ZM1275.85,207.767C1269.59,207.767 1264.9,209.329 1260.21,214.021C1255.51,217.15 1253.95,223.408 1252.38,231.229L1296.19,231.229C1296.19,223.408 1294.63,218.717 1289.93,214.021C1288.37,209.329 1283.68,207.767 1275.85,207.767Z" style="fill:rgb(71,75,100);fill-rule:nonzero;"></path>                <path id="Shape7" serif:id="Shape" d="M1488.61,278.163C1488.61,293.808 1483.92,306.321 1472.97,314.146C1462.02,321.967 1446.37,326.658 1426.04,326.658C1415.09,326.658 1405.7,326.658 1397.88,325.096C1390.06,323.529 1380.67,321.967 1372.85,318.838L1372.85,278.162C1380.67,281.292 1390.06,284.421 1399.44,287.55C1408.83,289.113 1416.65,290.679 1424.47,290.679C1435.42,290.679 1441.68,287.55 1441.68,282.858C1441.68,279.729 1440.12,278.163 1436.99,276.6C1433.86,275.033 1424.47,270.342 1410.39,264.083C1396.31,257.825 1386.93,251.567 1382.23,245.313C1377.54,237.488 1374.41,229.667 1374.41,218.717C1374.41,204.638 1379.1,193.683 1390.06,185.863C1401.01,178.042 1415.09,174.913 1435.42,174.913C1444.81,174.913 1454.19,176.475 1463.58,178.042C1472.97,179.604 1480.79,182.733 1490.18,187.429L1476.1,220.279C1469.84,217.15 1462.02,214.021 1454.19,212.458C1446.37,210.892 1440.11,209.329 1435.42,209.329C1427.6,209.329 1422.91,210.892 1422.91,215.588C1422.91,218.717 1424.47,220.279 1427.6,221.846C1430.73,223.408 1438.55,226.538 1452.63,232.796C1463.58,237.488 1471.4,240.617 1476.1,245.313C1480.79,250.004 1485.49,254.696 1487.05,259.392C1487.05,262.521 1488.61,270.342 1488.61,278.163Z" style="fill:rgb(71,75,100);fill-rule:nonzero;"></path>                <path id="Shape8" serif:id="Shape" d="M1516.77,137.367C1516.77,129.546 1518.33,123.288 1523.03,120.158C1527.72,117.029 1533.98,113.9 1543.37,113.9C1552.75,113.9 1560.57,115.467 1563.7,120.158C1568.39,123.288 1569.96,129.546 1569.96,137.367C1569.96,153.013 1560.57,159.267 1541.8,159.267C1524.59,160.833 1516.77,153.013 1516.77,137.367ZM1568.39,323.529L1516.77,323.529L1516.77,174.913L1568.39,174.913L1568.39,323.529Z" style="fill:rgb(71,75,100);fill-rule:nonzero;"></path>                <path id="Shape9" serif:id="Shape" d="M1745.17,174.913L1745.17,199.942L1724.83,207.767C1727.96,212.458 1729.52,218.717 1729.52,224.975C1729.52,240.617 1723.27,253.133 1712.32,262.521C1701.37,271.904 1684.16,275.033 1662.25,275.033C1656,275.033 1652.87,275.033 1649.74,273.471C1648.17,275.033 1648.17,278.163 1648.17,279.729C1648.17,282.858 1649.74,284.421 1654.43,285.983C1659.12,287.55 1663.82,287.55 1670.08,287.55L1695.11,287.55C1727.96,287.55 1745.17,301.629 1745.17,329.788C1745.17,348.563 1737.35,362.642 1721.7,372.029C1706.06,381.413 1684.16,387.671 1656,387.671C1635.66,387.671 1618.45,384.542 1607.5,376.721C1596.55,370.463 1590.29,359.513 1590.29,346.996C1590.29,329.788 1601.24,317.275 1623.14,312.579C1618.45,311.017 1615.32,307.888 1610.63,303.196C1607.5,298.5 1605.94,295.371 1605.94,290.679C1605.94,285.983 1607.5,281.292 1609.07,278.163C1612.19,275.033 1616.89,270.342 1624.71,265.65C1616.89,262.521 1610.63,256.263 1605.94,250.004C1601.24,242.183 1599.68,234.358 1599.68,223.408C1599.68,207.767 1605.94,195.25 1616.89,185.863C1627.84,176.475 1643.48,171.783 1663.82,171.783C1666.95,171.783 1671.64,171.783 1677.9,173.346C1684.16,173.346 1688.85,174.913 1691.98,174.913L1745.17,174.913ZM1632.53,342.304C1632.53,346.996 1634.1,350.125 1638.79,353.254C1643.48,356.383 1649.74,356.383 1657.56,356.383C1670.08,356.383 1679.46,354.821 1687.29,351.692C1695.11,348.562 1698.24,343.867 1698.24,339.175C1698.24,334.483 1696.67,332.917 1691.98,331.354C1687.29,329.788 1681.03,328.225 1671.64,328.225L1651.3,328.225C1645.05,328.225 1641.92,329.788 1637.22,331.354C1634.1,334.483 1632.53,337.613 1632.53,342.304ZM1648.17,223.408C1648.17,239.054 1652.87,246.875 1663.82,246.875C1668.51,246.875 1673.21,245.313 1674.77,240.617C1677.9,237.488 1679.46,231.229 1679.46,223.408C1679.46,207.767 1674.77,199.942 1663.82,199.942C1654.43,199.942 1648.17,207.767 1648.17,223.408Z" style="fill:rgb(71,75,100);fill-rule:nonzero;"></path>                <path id="Shape10" serif:id="Shape" d="M1860.94,326.658L1860.94,242.183C1860.94,232.796 1859.38,224.975 1856.25,220.279C1853.12,215.588 1848.43,212.458 1842.17,212.458C1832.78,212.458 1826.52,215.587 1823.39,223.408C1820.27,229.667 1817.14,242.183 1817.14,259.392L1817.14,325.096L1765.52,325.096L1765.52,176.475L1804.62,176.475L1810.88,195.25L1814.01,195.25C1818.7,188.992 1824.96,182.733 1832.78,179.604C1840.61,176.475 1849.99,174.913 1859.38,174.913C1876.59,174.913 1889.1,179.604 1898.49,188.992C1907.87,198.379 1912.57,212.458 1912.57,229.667L1912.57,326.658L1860.94,326.658Z" style="fill:rgb(71,75,100);fill-rule:nonzero;"></path>                <path id="Shape11" serif:id="Shape" d="M2076.83,323.529L2053.36,262.521L1976.71,262.521L1953.24,323.529L1931.34,323.529L2007.99,131.108L2026.77,131.108L2101.86,323.529L2076.83,323.529ZM2045.54,242.183L2023.64,182.733C2020.51,174.913 2017.38,165.525 2014.25,154.575C2012.69,162.396 2009.56,171.783 2006.43,182.733L1984.53,242.183L2045.54,242.183Z" style="fill:rgb(71,75,100);fill-rule:nonzero;"></path>                <path id="Shape12" serif:id="Shape" d="M2241.09,323.529L2214.49,239.054C2212.93,234.358 2209.8,221.846 2205.11,204.638L2203.54,204.638C2200.41,220.279 2197.28,231.229 2194.16,240.617L2167.56,325.096L2142.53,325.096L2103.42,181.171L2126.89,181.171C2136.27,217.15 2142.53,245.313 2148.79,264.083C2153.48,282.858 2156.61,295.371 2156.61,301.629L2158.17,301.629C2159.74,296.937 2161.3,290.679 2162.87,282.858C2164.43,275.033 2167.56,268.775 2169.13,264.083L2195.72,181.171L2219.18,181.171L2244.22,264.083C2248.91,279.729 2252.04,292.242 2253.6,301.629L2255.17,301.629C2255.17,298.5 2256.73,293.808 2258.3,287.55C2259.86,281.292 2269.25,245.313 2284.89,181.171L2306.79,181.171L2267.68,325.096L2241.09,325.096L2241.09,323.529Z" style="fill:rgb(71,75,100);fill-rule:nonzero;"></path>                <path id="Shape13" serif:id="Shape" d="M2421,323.529L2416.31,303.196L2414.75,303.196C2406.92,312.579 2400.66,318.838 2392.84,321.967C2385.02,325.096 2377.2,326.658 2366.25,326.658C2352.17,326.658 2341.22,323.529 2333.4,315.708C2325.57,307.888 2320.88,298.5 2320.88,284.421C2320.88,254.696 2344.35,240.617 2391.28,239.054L2416.31,237.488L2416.31,228.104C2416.31,217.15 2413.18,207.767 2408.49,203.071C2403.79,198.379 2395.97,195.25 2385.02,195.25C2372.5,195.25 2359.99,198.379 2344.35,206.2L2338.09,188.992C2345.91,185.863 2352.17,182.733 2361.55,179.604C2369.38,178.042 2378.76,176.475 2386.58,176.475C2403.79,176.475 2416.31,179.604 2424.13,187.429C2431.95,195.25 2436.65,207.767 2436.65,223.408L2436.65,321.967L2421,321.967L2421,323.529ZM2370.94,307.888C2385.02,307.888 2394.41,304.758 2402.23,296.938C2410.05,289.113 2413.18,279.729 2413.18,265.65L2413.18,253.133L2391.28,254.696C2374.07,254.696 2361.55,257.825 2353.73,262.521C2345.91,267.213 2342.78,275.033 2342.78,284.421C2342.78,292.242 2345.91,298.5 2350.6,301.629C2356.86,306.321 2363.12,307.888 2370.94,307.888L2370.94,307.888Z" style="fill:rgb(71,75,100);fill-rule:nonzero;"></path>                <path id="Shape14" serif:id="Shape" d="M2547.71,176.475C2553.97,176.475 2560.23,176.475 2564.92,178.042L2561.79,198.379C2555.53,196.813 2550.84,196.813 2546.15,196.813C2535.2,196.813 2524.25,201.508 2516.42,210.892C2508.6,220.279 2503.91,232.796 2503.91,246.875L2503.91,323.529L2482.01,323.529L2482.01,179.604L2499.21,179.604L2502.34,206.2L2503.91,206.2C2508.6,196.812 2516.42,188.992 2522.68,184.3C2530.5,179.604 2538.33,176.475 2547.71,176.475L2547.71,176.475Z" style="fill:rgb(71,75,100);fill-rule:nonzero;"></path>                <path id="Shape15" serif:id="Shape" d="M2690.08,304.758C2679.13,318.838 2663.48,326.658 2643.15,326.658C2624.38,326.658 2610.3,320.404 2599.35,307.888C2588.39,295.371 2583.7,276.6 2583.7,253.133C2583.7,229.667 2588.39,210.892 2599.35,198.379C2610.3,185.863 2624.38,178.042 2643.15,178.042C2661.92,178.042 2677.56,185.863 2688.52,199.942L2690.08,199.942L2688.52,188.992L2688.52,118.592L2710.42,118.592L2710.42,323.529L2693.21,323.529L2690.08,304.758ZM2646.28,307.888C2661.92,307.888 2671.31,303.196 2679.13,295.371C2685.39,287.55 2688.52,273.471 2688.52,256.263L2688.52,251.567C2688.52,231.229 2685.39,217.15 2677.56,207.767C2671.31,198.379 2660.36,195.25 2644.71,195.25C2632.2,195.25 2622.81,199.942 2614.99,210.892C2608.73,220.279 2604.04,234.358 2604.04,253.133C2604.04,271.904 2607.17,285.983 2613.43,295.371C2622.81,303.196 2632.2,307.888 2646.28,307.888Z" style="fill:rgb(71,75,100);fill-rule:nonzero;"></path>                <path id="Shape16" serif:id="Shape" d="M2849.65,284.421C2849.65,298.5 2844.95,307.888 2834,315.708C2824.62,323.529 2810.54,326.658 2791.77,326.658C2772.99,326.658 2757.35,323.529 2746.4,317.275L2746.4,296.938C2752.65,300.067 2760.48,303.196 2768.3,304.758C2776.12,306.321 2783.95,307.888 2791.77,307.888C2802.72,307.888 2812.1,306.321 2818.36,303.196C2824.62,300.067 2827.75,293.808 2827.75,285.983C2827.75,279.729 2824.62,275.033 2819.93,271.904C2815.23,267.213 2805.85,262.521 2791.77,257.825C2777.69,253.133 2768.3,248.438 2763.61,245.313C2757.35,242.183 2754.22,237.488 2751.09,232.796C2747.96,228.104 2746.4,221.846 2746.4,215.588C2746.4,204.638 2751.09,195.25 2760.48,187.429C2769.86,179.604 2782.38,176.475 2799.59,176.475C2815.23,176.475 2830.88,179.604 2844.95,185.863L2837.13,203.071C2823.05,196.813 2808.97,193.683 2798.03,193.683C2787.08,193.683 2779.25,195.25 2774.56,198.379C2769.86,201.508 2766.74,206.2 2766.74,212.458C2766.74,215.588 2768.3,220.279 2769.86,221.846C2771.43,224.975 2774.56,226.538 2779.25,229.667C2783.95,232.796 2791.77,235.925 2804.28,240.617C2821.49,246.875 2832.44,253.133 2838.7,259.392C2846.52,267.213 2849.65,275.033 2849.65,284.421Z" style="fill:rgb(71,75,100);fill-rule:nonzero;"></path>            </g>        </g>    </g></svg>