<svg xmlns="http://www.w3.org/2000/svg" xmlns:xlink="http://www.w3.org/1999/xlink" xmlns:serif="http://www.serif.com/" width="100%" height="100%" viewBox="0 0 1116 258" xml:space="preserve" style="fill-rule:evenodd;clip-rule:evenodd;stroke-linejoin:round;stroke-miterlimit:2;">    <g transform="matrix(1,0,0,1,-75,-1146)">        <g id="design-rush-best-design-logo" transform="matrix(1,0,0,1,-11.251,92.4211)">            <g transform="matrix(1.01382,0,0,1.01382,82.8716,1053.32)">                <g>                    <path d="M76.667,241.25L67.083,234.167L79.167,234.167L83.333,221.667L87.083,234.167L99.167,234.167L88.75,241.25L92.5,253.333L82.917,245.833L72.083,253.333L76.667,241.25Z" style="fill:rgb(71,75,100);fill-rule:nonzero;"></path>                    <path d="M135.417,241.25L125.833,234.167L137.917,234.167L142.083,221.667L145.833,234.167L157.917,234.167L147.083,241.25L150.833,253.333L141.25,245.833L130.833,253.333L135.417,241.25Z" style="fill:rgb(71,75,100);fill-rule:nonzero;"></path>                    <path d="M17.917,241.25L8.333,234.167L20.417,234.167L24.583,221.667L28.333,234.167L40.417,234.167L30,241.25L33.75,253.333L24.167,245.833L14.583,253.333L17.917,241.25Z" style="fill:rgb(71,75,100);fill-rule:nonzero;"></path>                </g>                <g>                    <path d="M80.833,113.75L82.917,113.333L98.333,108.75L82.917,136.667L80.833,140L78.333,135.417L62.5,108.75L78.333,112.5L80.833,113.75Z" style="fill:rgb(71,75,100);fill-rule:nonzero;"></path>                    <path d="M74.583,150L52.5,117.5C52.5,117.5 44.583,106.25 34.583,105C24.583,103.75 3.333,100 3.333,100L81.667,212.5L161.25,99.583L136.667,102.917L127.5,104.583C120,105.417 113.333,109.583 108.75,116.25L82.917,154.167L80.833,157.5L74.583,150Z" style="fill:rgb(71,75,100);fill-rule:nonzero;"></path>                    <path d="M99.167,82.917C95.417,82.917 93.333,80.833 92.917,77.5C92.917,73.333 97.5,70.417 101.667,66.25C105,62.917 108.333,58.333 108.333,51.667C108.333,42.5 102.917,33.75 100,29.583C99.167,28.333 99.167,28.333 98.75,27.917L97.917,27.083C97.917,56.667 62.5,58.75 62.5,80.833L62.5,81.25C62.5,91.25 71.667,99.167 83.333,99.167C121.25,99.167 116.25,62.5 116.25,62.083C116.25,62.083 115.417,73.333 107.917,79.167C105.417,81.25 102.917,82.917 99.167,82.917Z" style="fill:rgb(71,75,100);fill-rule:nonzero;"></path>                    <path d="M77.5,0.417C77.083,0.833 64.583,15 64.583,23.333C64.583,32.5 68.75,37.083 68.75,41.667C68.75,45.417 67.917,47.083 65.833,47.5L65,47.5C61.25,47.083 57.5,44.583 57.5,35.417C57.5,35.417 44.583,55.417 44.583,68.75C44.583,82.083 57.917,94.583 57.917,94.583C55.417,90 54.167,85.417 54.583,80.417C54.583,59.583 89.583,49.167 89.583,29.583C89.583,19.583 85.417,9.167 77.5,0.417Z" style="fill:rgb(71,75,100);fill-rule:nonzero;"></path>                </g>            </g>            <g transform="matrix(1.01382,0,0,1.01382,82.8716,1053.32)">                <path d="M200.417,99.167L240.833,99.167C270.833,99.167 292.5,117.083 292.5,146.667C292.5,176.25 270.833,195 240.833,195L200.417,195L200.417,99.167ZM240.833,173.75C257.5,173.75 267.5,161.667 267.5,147.5C267.5,132.917 258.75,121.25 241.25,121.25L225.417,121.25L225.417,173.75L240.833,173.75Z" style="fill:rgb(71,75,100);fill-rule:nonzero;"></path>                <path d="M305,99.167L375,99.167L375,120L329.583,120L329.583,135.833L374.167,135.833L374.167,156.667L329.583,156.667L329.583,173.75L375,173.75L375,194.583L305,194.583L305,99.167Z" style="fill:rgb(71,75,100);fill-rule:nonzero;"></path>                <path d="M395.417,162.5C402.083,169.583 412.917,175 425.833,175C434.167,175 439.583,171.25 439.583,166.667C439.583,161.25 433.333,159.167 423.333,157.083C407.5,153.75 385.417,150 385.417,127.5C385.417,111.667 399.167,97.5 423.333,97.5C438.75,97.5 452.083,102.083 462.083,110.833L448.75,128.333C440.833,121.667 430.417,118.333 421.667,118.333C413.333,118.333 410.417,121.667 410.417,125.833C410.417,130.833 416.25,132.5 427.083,134.583C442.917,137.917 464.583,142.5 464.583,164.167C464.583,183.333 450.417,196.25 424.583,196.25C405.417,196.25 391.667,190.417 382.083,181.25L395.417,162.5Z" style="fill:rgb(71,75,100);fill-rule:nonzero;"></path>                <rect x="476.25" y="99.167" width="24.583" height="95.417" style="fill:rgb(71,75,100);"></rect>                <path d="M564.583,97.5C585.417,97.5 598.333,107.917 605.417,119.583L584.583,130.417C580.833,124.167 573.333,119.167 564.583,119.167C549.167,119.167 537.917,131.25 537.917,146.667C537.917,162.083 548.75,174.167 564.583,174.167C572.083,174.167 578.75,171.667 582.5,168.333L582.5,160.417L560.417,160.417L560.417,140L606.667,140L606.667,177.5C596.25,188.75 582.5,196.25 564.583,196.25C536.25,196.25 512.917,177.083 512.917,146.667C512.917,116.667 536.25,97.5 564.583,97.5Z" style="fill:rgb(71,75,100);fill-rule:nonzero;"></path>                <path d="M646.25,137.5L646.25,195.417L621.25,195.417L621.25,99.583L646.667,99.583L685.417,154.583L685.417,99.167L710,99.167L710,194.583L686.25,194.583L646.25,137.5Z" style="fill:rgb(71,75,100);fill-rule:nonzero;"></path>                <path d="M764.583,162.5L752.083,162.5L752.083,195L727.5,195L727.5,99.167L775.417,99.167C796.667,99.167 808.75,113.333 808.75,130.833C808.75,147.5 798.75,156.25 789.583,159.583L809.167,194.583L780.833,194.583L764.583,162.5ZM771.667,120L752.083,120L752.083,141.667L771.667,141.667C777.917,141.667 783.75,137.5 783.75,130.833C783.333,124.167 777.917,120 771.667,120Z" style="fill:rgb(71,75,100);fill-rule:nonzero;"></path>                <path d="M822.083,99.167L847.083,99.167L847.083,155C847.083,166.25 852.917,174.583 866.25,174.583C879.583,174.583 885.417,166.25 885.417,155L885.417,99.167L910.417,99.167L910.417,155.833C910.417,179.583 896.667,196.25 866.25,196.25C835.417,196.25 821.667,179.167 821.667,155.833L822.083,99.167Z" style="fill:rgb(71,75,100);fill-rule:nonzero;"></path>                <path d="M934.167,162.5C940.833,169.583 951.667,175 964.583,175C972.917,175 978.333,171.25 978.333,166.667C978.333,161.25 972.083,159.167 962.083,157.083C946.25,153.75 924.167,150 924.167,127.5C924.167,111.667 937.917,97.5 962.083,97.5C977.5,97.5 990.833,102.083 1000.83,110.833L987.5,128.333C979.583,121.667 969.167,118.333 960.417,118.333C952.083,118.333 949.167,121.667 949.167,125.833C949.167,130.833 955,132.5 965.833,134.583C981.667,137.917 1003.33,142.5 1003.33,164.167C1003.33,183.333 989.167,196.25 963.333,196.25C944.167,196.25 930.417,190.417 920.833,181.25L934.167,162.5Z" style="fill:rgb(71,75,100);fill-rule:nonzero;"></path>                <path d="M1079.17,156.25L1039.59,156.25L1039.59,194.583L1015,194.583L1015,99.167L1039.59,99.167L1039.59,135L1079.17,135L1079.17,99.167L1103.75,99.167L1103.75,194.583L1079.17,194.583L1079.17,156.25Z" style="fill:rgb(71,75,100);fill-rule:nonzero;"></path>            </g>            <g transform="matrix(1.01382,0,0,1.01382,82.8716,1053.32)">                <path d="M200.833,220L215.833,220C221.667,220 225,223.333 225,228.333C225,232.5 222.083,235.417 219.167,235.833C222.917,236.25 225.833,240 225.833,244.167C225.833,249.583 222.083,253.333 216.25,253.333L201.25,253.333L200.833,220ZM215,234.167C218.75,234.167 220.833,231.667 220.833,228.75C220.833,225.833 218.75,223.333 215,223.333L205,223.333L205,234.167L215,234.167ZM215,249.583C218.75,249.583 221.25,247.5 221.25,243.75C221.25,240.833 219.167,237.917 215,237.917L205,237.917L205,249.583C205,249.167 215,249.167 215,249.583Z" style="fill:rgb(71,75,100);fill-rule:nonzero;"></path>                <path d="M252.5,220L274.167,220L274.167,223.75L256.667,223.75L256.667,234.583L274.167,234.583L274.167,238.333L256.667,238.333L256.667,250L274.167,250L274.167,253.75L252.5,253.75L252.5,220Z" style="fill:rgb(71,75,100);fill-rule:nonzero;"></path>                <path d="M301.25,245.417C303.333,247.917 307.083,250 311.667,250C317.5,250 319.583,246.667 319.583,244.167C319.583,240 315.417,239.167 311.25,237.917C305.833,236.667 300,235 300,228.333C300,222.917 305,219.167 311.25,219.167C316.25,219.167 320.417,220.833 322.917,223.75L320.417,226.667C317.917,223.75 314.583,222.5 310.833,222.5C306.667,222.5 304.167,224.583 304.167,227.917C304.167,231.25 307.917,232.083 312.083,233.333C317.5,234.583 323.75,236.667 323.75,243.333C323.75,248.333 320.417,253.333 311.25,253.333C305.417,253.333 301.25,251.25 298.333,247.917L301.25,245.417Z" style="fill:rgb(71,75,100);fill-rule:nonzero;"></path>                <path d="M357.917,223.75L347.5,223.75L347.5,220L372.917,220L372.917,223.75L362.5,223.75L362.5,253.333L358.333,253.333L357.917,223.75Z" style="fill:rgb(71,75,100);fill-rule:nonzero;"></path>            </g>            <g transform="matrix(1.01382,0,0,1.01382,82.8716,1053.32)">                <path d="M455.417,220L466.667,220C477.083,220 483.75,227.083 483.75,236.667C483.75,246.25 477.083,253.333 466.667,253.333L455.417,253.333L455.417,220ZM467.083,249.583C475,249.583 480,243.75 480,236.667C480,229.583 475.417,223.75 467.083,223.75L460,223.75L460,249.583L467.083,249.583Z" style="fill:rgb(71,75,100);fill-rule:nonzero;"></path>                <path d="M510.417,220L532.083,220L532.083,223.75L514.583,223.75L514.583,234.583L532.083,234.583L532.083,238.333L514.583,238.333L514.583,250L532.083,250L532.083,253.75L510.417,253.75L510.417,220Z" style="fill:rgb(71,75,100);fill-rule:nonzero;"></path>                <path d="M559.583,245.417C561.667,247.917 565.417,250 570,250C575.833,250 577.917,246.667 577.917,244.167C577.917,240 573.75,239.167 569.583,237.917C564.167,236.667 558.333,235 558.333,228.333C558.333,222.917 563.333,219.167 569.583,219.167C574.583,219.167 578.75,220.833 581.25,223.75L578.75,226.667C576.25,223.75 572.917,222.5 569.167,222.5C565,222.5 562.5,224.583 562.5,227.917C562.5,231.25 566.25,232.083 570.417,233.333C575.833,234.583 582.083,236.667 582.083,243.333C582.083,248.333 578.75,253.333 569.583,253.333C563.75,253.333 559.583,251.25 556.667,247.917L559.583,245.417Z" style="fill:rgb(71,75,100);fill-rule:nonzero;"></path>                <rect x="608.333" y="220" width="4.167" height="33.333" style="fill:rgb(71,75,100);"></rect>                <path d="M656.25,219.583C662.083,219.583 666.25,222.083 669.167,225.833L665.833,227.917C663.75,225.417 660,223.333 656.25,223.333C648.75,223.333 643.333,228.75 643.333,237.083C643.333,245 648.75,250.833 656.25,250.833C660.417,250.833 663.75,248.75 665,247.083L665,240.417L653.75,240.417L653.75,236.667L669.167,236.667L669.167,248.75C666.25,252.083 661.667,254.583 656.25,254.583C646.667,254.583 639.167,247.5 639.167,237.5C639.167,226.667 646.667,219.583 656.25,219.583Z" style="fill:rgb(71,75,100);fill-rule:nonzero;"></path>                <path d="M700,226.667L700,253.75L695.833,253.75L695.833,220.417L700,220.417L719.167,246.667L719.167,220.417L723.333,220.417L723.333,253.75L719.167,253.75L700,226.667Z" style="fill:rgb(71,75,100);fill-rule:nonzero;"></path>            </g>            <g transform="matrix(1.01382,0,0,1.01382,82.8716,1053.32)">                <path d="M830.833,245.833L813.75,245.833L810.833,253.333L806.25,253.333L819.583,220L824.583,220L837.917,253.333L833.75,253.333L830.833,245.833ZM815,242.5L829.583,242.5L822.5,223.75L815,242.5Z" style="fill:rgb(71,75,100);fill-rule:nonzero;"></path>                <path d="M878.75,226.667L871.25,253.75L866.667,253.75L857.083,220.417L861.667,220.417L869.167,248.333L876.667,220.417L880,220.417L887.5,248.333L895,220.417L899.583,220.417L890,253.75L885.417,253.75L878.75,226.667Z" style="fill:rgb(71,75,100);fill-rule:nonzero;"></path>                <path d="M943.333,245.833L926.25,245.833L923.333,253.333L918.75,253.333L932.083,220L937.083,220L950.417,253.333L946.25,253.333L943.333,245.833ZM927.5,242.5L942.083,242.5L935,223.75L927.5,242.5Z" style="fill:rgb(71,75,100);fill-rule:nonzero;"></path>                <path d="M985.833,240.417L979.167,240.417L979.167,253.75L975,253.75L975,220.417L988.333,220.417C994.583,220.417 998.75,224.167 998.75,230.417C998.75,236.25 994.583,239.583 990,240L999.167,253.75L994.167,253.75L985.833,240.417ZM987.917,223.75L979.167,223.75L979.167,236.667L987.917,236.667C991.667,236.667 994.583,234.167 994.583,230.417C994.583,226.667 992.083,223.75 987.917,223.75Z" style="fill:rgb(71,75,100);fill-rule:nonzero;"></path>                <path d="M1025.42,220L1036.67,220C1047.09,220 1053.75,227.083 1053.75,236.667C1053.75,246.25 1047.09,253.333 1036.67,253.333L1025.42,253.333L1025.42,220ZM1037.09,249.583C1045,249.583 1050,243.75 1050,236.667C1050,229.583 1045.42,223.75 1037.09,223.75L1029.59,223.75L1029.59,249.583L1037.09,249.583Z" style="fill:rgb(71,75,100);fill-rule:nonzero;"></path>                <path d="M1080.83,245.417C1082.91,247.917 1086.66,250 1091.25,250C1097.08,250 1099.16,246.667 1099.16,244.167C1099.16,240 1095,239.167 1090.83,237.917C1085.41,236.667 1079.58,235 1079.58,228.333C1079.58,222.917 1084.58,219.167 1090.83,219.167C1095.83,219.167 1100,220.833 1102.5,223.75L1100,226.667C1097.5,223.75 1094.16,222.5 1090.41,222.5C1086.25,222.5 1083.75,224.583 1083.75,227.917C1083.75,231.25 1087.5,232.083 1091.66,233.333C1097.08,234.583 1103.33,236.667 1103.33,243.333C1103.33,248.333 1100,253.333 1090.83,253.333C1085,253.333 1080.83,251.25 1077.91,247.917L1080.83,245.417Z" style="fill:rgb(71,75,100);fill-rule:nonzero;"></path>            </g>        </g>    </g></svg>