<svg xmlns="http://www.w3.org/2000/svg" xmlns:xlink="http://www.w3.org/1999/xlink" xmlns:serif="http://www.serif.com/" width="100%" height="100%" viewBox="0 0 1047 119" xml:space="preserve" style="fill-rule:evenodd;clip-rule:evenodd;stroke-linejoin:round;stroke-miterlimit:2;">    <g transform="matrix(1,0,0,1,-108,-1028)">        <g id="web-awards-logo" transform="matrix(1,0,0,1,-10.5518,166.898)">            <g transform="matrix(1.05472,0,0,1.05472,118.391,978.608)">                <g>                    <path d="M152.193,-108.708L133.865,-108.708L112.125,-31.057L87.276,-108.708L68.328,-108.708L44.104,-31.214L22.208,-108.708L0.776,-108.708L33.234,0L51.25,0L77.026,-78.578L103.271,0L121.13,0L152.193,-108.708Z" style="fill:rgb(71,75,100);fill-rule:nonzero;"></path>                </g>            </g>            <g transform="matrix(1.05472,0,0,1.05472,279.719,978.608)">                <g>                    <path d="M15.063,0L79.51,0L79.51,-17.859L34.167,-17.859L34.167,-45.969L73.302,-45.969L73.302,-63.828L34.167,-63.828L34.167,-90.849L77.958,-90.849L77.958,-108.708L15.063,-108.708L15.063,0Z" style="fill:rgb(71,75,100);fill-rule:nonzero;"></path>                </g>            </g>            <g transform="matrix(1.05472,0,0,1.05472,373.895,978.608)">                <g>                    <path d="M15.063,-0.156C21.432,0.313 35.406,0.62 45.349,0.62C68.328,0.62 85.724,-9.63 85.724,-31.99C85.724,-46.432 77.339,-54.667 66.62,-57.302L66.62,-57.615C75.938,-61.964 82.151,-69.885 82.151,-82.307C82.151,-97.37 72.37,-109.172 46.432,-109.172C35.563,-109.172 21.12,-108.708 15.063,-108.396L15.063,-0.156ZM47.677,-46.745C59.635,-46.745 66.62,-42.083 66.62,-32.922C66.62,-22.672 59.635,-17.24 46.745,-17.24C41.307,-17.24 36.807,-17.703 34.167,-18.016L34.167,-46.745L47.677,-46.745ZM46.125,-91.313C56.375,-91.313 63.208,-86.656 63.208,-77.802C63.208,-67.865 55.906,-63.359 47.057,-63.359L34.167,-63.359L34.167,-90.849C37.583,-91.161 41.776,-91.313 46.125,-91.313Z" style="fill:rgb(71,75,100);fill-rule:nonzero;"></path>                </g>            </g>            <g transform="matrix(1.05472,0,0,1.05472,474.993,977.285)">                <g>                    <path d="M3.26,0L11.958,0L27.797,-36.958L79.979,-36.958L95.818,0L104.979,0L57.615,-109.641L50.625,-109.641L3.26,0ZM53.885,-97.839L76.406,-45.036L31.214,-45.036L53.885,-97.839Z" style="fill:rgb(71,75,100);fill-rule:nonzero;"></path>                </g>            </g>            <g transform="matrix(1.05472,0,0,1.05472,589.151,977.285)">                <g>                    <path d="M146.599,-108.708L138.214,-108.708L111.036,-15.063L79.047,-108.708L71.125,-108.708L39.911,-15.219L11.802,-108.708L2.172,-108.708L35.406,0L42.859,0L74.854,-94.422L107.464,0L114.922,0L146.599,-108.708Z" style="fill:rgb(71,75,100);fill-rule:nonzero;"></path>                </g>            </g>            <g transform="matrix(1.05472,0,0,1.05472,746.056,977.285)">                <g>                    <path d="M3.26,0L11.958,0L27.797,-36.958L79.979,-36.958L95.818,0L104.979,0L57.615,-109.641L50.625,-109.641L3.26,0ZM53.885,-97.839L76.406,-45.036L31.214,-45.036L53.885,-97.839Z" style="fill:rgb(71,75,100);fill-rule:nonzero;"></path>                </g>            </g>            <g transform="matrix(1.05472,0,0,1.05472,860.214,977.285)">                <g>                    <path d="M25.781,0L25.781,-45.656L46.901,-45.656L83.083,0L93.646,0L55.594,-47.365C70.193,-50.474 81.375,-62.12 81.375,-77.646C81.375,-94.266 72.99,-109.021 43.328,-109.021C40.224,-109.021 23.297,-108.708 17.24,-108.708L17.24,0L25.781,0ZM42.859,-100.943C64.911,-100.943 72.37,-90.849 72.37,-77.646C72.37,-63.208 58.391,-53.734 44.568,-53.734L25.781,-53.734L25.781,-100.63C30.906,-100.786 39.599,-100.943 42.859,-100.943Z" style="fill:rgb(71,75,100);fill-rule:nonzero;"></path>                </g>            </g>            <g transform="matrix(1.05472,0,0,1.05472,963.562,977.285)">                <g>                    <path d="M17.24,0L18.635,0C27.333,0 35.875,0.313 43.792,0.313C85.26,0.313 106.068,-24.849 106.068,-55.906C106.068,-84.172 88.521,-109.172 45.036,-109.172C35.563,-109.172 26.714,-108.708 18.948,-108.708L17.24,-108.708L17.24,0ZM44.724,-101.099C80.911,-101.099 97.063,-81.063 97.063,-55.906C97.063,-28.729 79.047,-7.766 44.104,-7.766C43.016,-7.766 34.63,-7.922 25.781,-8.073L25.781,-100.63C32.302,-100.786 36.651,-101.099 44.724,-101.099Z" style="fill:rgb(71,75,100);fill-rule:nonzero;"></path>                </g>            </g>            <g transform="matrix(1.05472,0,0,1.05472,1084.27,977.285)">                <g>                    <path d="M67.401,-27.021C67.401,-13.667 54.974,-6.677 41.62,-6.677C31.833,-6.677 19.88,-11.49 13.51,-20.188L8.385,-14.286C13.823,-4.505 28.885,1.396 41.776,1.396C61.031,1.396 76.406,-9.781 76.406,-27.177C76.406,-64.911 20.188,-52.49 20.188,-82.927C20.188,-94.422 29.042,-102.031 43.328,-102.031C53.266,-102.031 61.344,-98.922 67.552,-92.714L72.214,-99.078C66.156,-105.755 55.13,-110.104 43.016,-110.104C22.828,-110.104 11.182,-98.146 11.182,-82.927C11.182,-46.589 67.401,-57.771 67.401,-27.021Z" style="fill:rgb(71,75,100);fill-rule:nonzero;"></path>                </g>            </g>        </g>    </g></svg>