<svg xmlns="http://www.w3.org/2000/svg" xmlns:xlink="http://www.w3.org/1999/xlink" xmlns:serif="http://www.serif.com/" width="100%" height="100%" viewBox="0 0 784 198" xml:space="preserve" style="fill-rule:evenodd;clip-rule:evenodd;stroke-linejoin:round;stroke-miterlimit:2;">    <g transform="matrix(1,0,0,1,-75,-1461)">        <g id="web-excellence-award-logo" transform="matrix(1,0,0,1,-3.33014,37.7964)">            <g transform="matrix(0.0358428,0,0,0.0358428,76.6499,1421.19)">                <path d="M7809.21,1483.16C7806.26,1473.62 7800.88,1464.93 7793.07,1457.29C7785.08,1449.66 7776.4,1444.27 7766.68,1441.49L7709.04,1424.13L7709.04,1390.28L8052.61,1390.28L8052.61,1424.13L7928.66,1447.92L8113.03,2060.94L8153.31,2194.27L8347.75,1568.23L8422.75,1390.28L8466.68,1390.28L8668.42,2050.87L8713.73,2200L8949.32,1450.87L8826.92,1424.13L8826.92,1390.28L9106.43,1390.28L9106.43,1424.13L9048.79,1441.49C9039.25,1444.45 9030.39,1450.18 9022.58,1458.86C9014.77,1467.54 9009.04,1476.56 9005.57,1486.29L8768.59,2215.28L8694.46,2393.23L8647.58,2393.23L8430.04,1690.11L8401.92,1594.27L8207.48,2215.28L8132.48,2393.23L8083.52,2393.23L7809.04,1483.34L7809.21,1483.16Z" style="fill:rgb(71,75,100);fill-rule:nonzero;"></path>                <path d="M9274.29,2349.13L9365.79,2329.68C9375.33,2327.26 9383.49,2322.22 9389.92,2314.58C9396.34,2306.94 9399.64,2297.74 9399.64,2287.15L9399.64,1486.11C9399.64,1475 9396.34,1465.62 9389.92,1457.98C9383.49,1450.34 9375.33,1445.31 9365.79,1442.88L9274.29,1424.13L9274.29,1390.28L9997.56,1390.28L9997.56,1622.91L9957.28,1622.91L9906.06,1469.44C9903.63,1462.32 9900.33,1456.25 9895.99,1451.38C9891.65,1446.53 9885.23,1444.27 9876.55,1444.27L9529.33,1444.27L9529.33,1838.36L9756.93,1838.36C9766.48,1838.36 9773.42,1836.28 9777.76,1831.94C9782.1,1827.6 9785.4,1822.05 9787.83,1815.45L9828.98,1697.39L9864.22,1697.39L9864.22,2035.24L9828.98,2035.24L9787.83,1918.57C9785.4,1910.93 9782.1,1904.86 9777.76,1900.17C9773.42,1895.65 9766.48,1893.4 9756.93,1893.4L9529.33,1893.4L9529.33,2328.47L9938.53,2328.47C9947.21,2328.47 9953.63,2326.21 9957.97,2321.7C9962.31,2317.18 9965.61,2310.93 9968.04,2303.3L10016.3,2129.68L10056.6,2129.68L10056.6,2383.33L9274.29,2383.33L9274.29,2349.13Z" style="fill:rgb(71,75,100);fill-rule:nonzero;"></path>                <path d="M10292.2,2349.13L10383.7,2329.68C10393.2,2327.26 10401.4,2322.22 10407.8,2314.58C10414.2,2306.94 10417.5,2297.74 10417.5,2287.15L10417.5,1486.11C10417.5,1475 10414.2,1465.62 10407.8,1457.98C10401.4,1450.34 10393.2,1445.31 10383.7,1442.88L10292.2,1424.13L10292.2,1390.28L10650.9,1390.28C10722.9,1390.28 10782.1,1396.35 10828.5,1408.68C10874.8,1421.01 10911.1,1437.32 10937.7,1457.63C10964.1,1478.12 10982.3,1501.38 10992.4,1527.78C11002.4,1554.16 11007.5,1581.59 11007.5,1609.89C11007.5,1641.14 11002.4,1669.96 10992.4,1696.35C10982.3,1722.74 10967.9,1746.53 10949.1,1767.7C10930.4,1788.88 10907.8,1806.94 10881.4,1822.05C10855,1837.15 10825.7,1849.13 10793.6,1857.63C10832,1859.03 10868.2,1865.62 10902.1,1877.43C10936,1889.23 10965.5,1905.38 10990.6,1925.69C11015.8,1946.18 11035.8,1970.65 11050.4,1999.48C11064.9,2028.3 11072.4,2060.76 11072.4,2096.7C11072.4,2134.72 11067,2168.05 11056.3,2196.87C11045.5,2225.69 11030.6,2250.69 11011.6,2271.87C10992.7,2293.05 10970.3,2310.59 10944.6,2324.82C10918.9,2339.06 10891.3,2350.34 10861.8,2359.03C10832.3,2367.7 10801.4,2373.78 10769.3,2377.43C10737.2,2381.07 10704.9,2382.81 10672.8,2382.81L10292.4,2382.81L10292.4,2348.95L10292.2,2349.13ZM10612.7,1847.74C10660.8,1847.74 10701.2,1843.4 10734,1834.72C10766.9,1826.04 10793.4,1813.71 10813.6,1797.57C10833.7,1781.42 10848.3,1761.8 10857.1,1738.54C10866,1715.28 10870.5,1688.88 10870.5,1659.72C10870.5,1621.35 10865.6,1588.36 10855.7,1561.11C10845.8,1533.68 10831.1,1511.28 10811.5,1493.75C10791.9,1476.21 10767.2,1463.36 10737.7,1455.2C10708.2,1447.05 10673.6,1442.88 10634.4,1442.88L10547.2,1442.88L10547.2,1847.74L10612.7,1847.74ZM10699.1,2329.68C10775.9,2329.68 10833.5,2313.88 10872.1,2282.11C10910.4,2250.34 10929.7,2198.61 10929.7,2126.56C10929.7,2084.37 10924.5,2048.61 10913.9,2019.61C10903.3,1990.62 10887,1967.01 10864.9,1948.95C10842.9,1930.9 10814.6,1917.88 10780.2,1909.72C10745.8,1901.56 10705.2,1897.57 10658.2,1897.57L10547.2,1897.57L10547.2,2329.86L10699.1,2329.86L10699.1,2329.68Z" style="fill:rgb(71,75,100);fill-rule:nonzero;"></path>                <path d="M11856.8,2349.13L11948.3,2329.68C11957.8,2327.26 11966,2322.22 11972.4,2314.58C11978.9,2306.94 11982.1,2297.74 11982.1,2287.15L11982.1,1486.11C11982.1,1475 11978.9,1465.62 11972.4,1457.98C11966,1450.34 11957.8,1445.31 11948.3,1442.88L11856.8,1424.13L11856.8,1390.28L12580.1,1390.28L12580.1,1622.91L12539.8,1622.91L12488.6,1469.44C12486.1,1462.32 12482.8,1456.25 12478.5,1451.38C12474.2,1446.53 12467.7,1444.27 12459.1,1444.27L12111.8,1444.27L12111.8,1838.36L12339.4,1838.36C12349,1838.36 12355.9,1836.28 12360.3,1831.94C12364.6,1827.6 12367.9,1822.05 12370.3,1815.45L12411.3,1697.39L12446.6,1697.39L12446.6,2035.24L12411.3,2035.24L12370.3,1918.57C12367.9,1910.93 12364.6,1904.86 12360.3,1900.17C12355.9,1895.65 12349,1893.4 12339.4,1893.4L12111.8,1893.4L12111.8,2328.47L12521,2328.47C12529.7,2328.47 12536.1,2326.21 12540.5,2321.7C12544.8,2317.18 12548.1,2310.93 12550.6,2303.3L12598.8,2129.68L12639.1,2129.68L12639.1,2383.33L11856.8,2383.33L11856.8,2349.13Z" style="fill:rgb(71,75,100);fill-rule:nonzero;"></path>                <path d="M12846.5,2349.13L12899.8,2332.46C12910.9,2328.64 12921.8,2321.7 12932.6,2311.63C12943.4,2301.56 12952.2,2292.01 12959,2282.81L13230.5,1898.78L12964.7,1484.55C12961.8,1480.2 12958.5,1475.86 12954.7,1471.18C12950.8,1466.66 12946.7,1462.32 12942.3,1458.15C12938,1453.99 12933.6,1450.52 12929.3,1447.39C12925,1444.27 12921,1442.18 12917,1441.32L12855,1423.95L12855,1390.1L13213.7,1390.1L13213.7,1423.95L13089.7,1447.74L13269.8,1732.29L13320.3,1815.1L13560.2,1450.52L13442.9,1423.78L13442.9,1389.93L13723.1,1389.93L13723.1,1423.78L13669.8,1439.58C13659.2,1442.88 13648.4,1450 13637.3,1460.41C13626.2,1471.01 13617.3,1480.9 13610.6,1489.93L13352.8,1860.24L13625.8,2288.19C13631,2296.35 13638.5,2304.86 13647.9,2313.71C13657.3,2322.57 13665.6,2328.3 13672.7,2330.55L13734.7,2348.61L13734.7,2382.46L13376,2382.46L13376,2348.61L13500,2324.82L13312.6,2028.12L13263,1944.61L13010.9,2322.05L13126.9,2348.78L13126.9,2382.64L12846.7,2382.64L12846.7,2348.78L12846.5,2349.13Z" style="fill:rgb(71,75,100);fill-rule:nonzero;"></path>                <path d="M14751.2,2189.24L14751.2,2249.83C14731.6,2266.67 14708.7,2284.03 14682.8,2302.09C14656.9,2320.14 14628.6,2336.64 14598.1,2351.74C14567.5,2366.84 14535.2,2379.34 14501.2,2389.24C14467,2399.14 14432.3,2403.99 14396.7,2403.99C14324.1,2403.99 14258.7,2392.19 14200.3,2368.41C14142,2344.62 14092.2,2310.59 14050.9,2266.15C14009.5,2221.7 13977.8,2167.71 13955.4,2103.99C13933,2040.45 13921.9,1968.75 13921.9,1889.07C13921.9,1809.38 13934,1741.84 13958.1,1677.95C13982.3,1614.07 14016,1559.38 14058.7,1513.72C14101.4,1468.06 14151.7,1432.64 14209.5,1407.47C14267.3,1382.29 14330.2,1369.62 14397.9,1369.62C14421.3,1369.62 14447.4,1371.36 14475.7,1374.66C14504,1378.13 14532.3,1382.29 14560.7,1387.68C14589,1392.88 14616.3,1398.96 14642.2,1405.73C14668,1412.5 14690.6,1419.1 14709.9,1425.87L14709.9,1655.73L14671.7,1655.73L14625.5,1529.69C14623.1,1520.49 14619.3,1513.89 14614,1509.55C14608.8,1505.21 14602.8,1501.22 14596,1497.22C14580.5,1488.54 14563.4,1480.38 14544.1,1472.74C14524.8,1465.11 14504.7,1458.16 14483.5,1452.26C14462.3,1446.36 14441.1,1441.67 14419.8,1438.2C14398.4,1434.9 14377.9,1433.16 14358.1,1433.16C14315.4,1433.16 14276,1442.19 14240.1,1460.24C14204.1,1478.3 14173.1,1505.21 14147.2,1541.32C14121.3,1577.43 14101,1622.4 14086.6,1676.39C14072.2,1730.38 14065.1,1793.41 14065.1,1865.45C14065.1,2015.8 14097,2128.65 14160.9,2203.99C14224.8,2279.34 14316.3,2317.01 14435.4,2317.01C14474.8,2317.01 14509.9,2312.85 14540.6,2304.34C14571.3,2296.01 14598.9,2285.42 14623.4,2272.74C14647.9,2260.07 14669.4,2246.18 14687.8,2231.25C14706.2,2216.32 14723.1,2202.43 14737.8,2189.41L14750.9,2189.41L14751.2,2189.24Z" style="fill:rgb(71,75,100);fill-rule:nonzero;"></path>                <path d="M14968,2349.13L15059.5,2329.68C15069,2327.26 15077.2,2322.22 15083.6,2314.58C15090.1,2306.94 15093.4,2297.74 15093.4,2287.15L15093.4,1486.11C15093.4,1475 15090.1,1465.62 15083.6,1457.98C15077.2,1450.34 15069,1445.31 15059.5,1442.88L14968,1424.13L14968,1390.28L15691.3,1390.28L15691.3,1622.91L15651,1622.91L15599.8,1469.44C15597.3,1462.32 15594,1456.25 15589.7,1451.38C15585.4,1446.53 15578.9,1444.27 15570.3,1444.27L15223,1444.27L15223,1838.36L15450.6,1838.36C15460.2,1838.36 15467.1,1836.28 15471.5,1831.94C15475.8,1827.6 15479.1,1822.05 15481.5,1815.45L15522.7,1697.39L15557.9,1697.39L15557.9,2035.24L15522.7,2035.24L15481.5,1918.57C15479.1,1910.93 15475.8,1904.86 15471.5,1900.17C15467.1,1895.65 15460.2,1893.4 15450.6,1893.4L15223,1893.4L15223,2328.47L15632.2,2328.47C15640.9,2328.47 15647.3,2326.21 15651.7,2321.7C15656,2317.18 15659.3,2310.93 15661.8,2303.3L15710,2129.68L15750.3,2129.68L15750.3,2383.33L14968,2383.33L14968,2349.13Z" style="fill:rgb(71,75,100);fill-rule:nonzero;"></path>                <path d="M15985.8,2349.13L16077.3,2329.68C16086.8,2327.26 16095,2322.22 16101.4,2314.58C16107.9,2306.94 16111.1,2297.74 16111.1,2287.15L16111.1,1486.11C16111.1,1475 16107.9,1465.62 16101.4,1457.98C16095,1450.34 16086.8,1445.31 16077.3,1442.88L15985.8,1424.13L15985.8,1390.28L16371.2,1390.28L16371.2,1424.13L16275.4,1442.88C16265.8,1444.79 16257.7,1449.82 16250.9,1457.98C16244.1,1466.14 16240.8,1475.52 16240.8,1486.11L16240.8,2328.12L16605.2,2328.12C16610.1,2328.12 16614.3,2326.73 16617.9,2324.13C16621.6,2321.53 16624.5,2318.05 16626.9,2314.06C16629.4,2309.89 16631.3,2305.73 16632.7,2301.38C16634.1,2297.05 16635.3,2293.23 16636.3,2289.93L16691,2099.82L16729.2,2099.82L16729.2,2382.98L15985.8,2382.98L15985.8,2349.13Z" style="fill:rgb(71,75,100);fill-rule:nonzero;"></path>                <path d="M16930.9,2349.13L17022.4,2329.68C17031.9,2327.26 17040.1,2322.22 17046.5,2314.58C17052.9,2306.94 17056.2,2297.74 17056.2,2287.15L17056.2,1486.11C17056.2,1475 17052.9,1465.62 17046.5,1457.98C17040.1,1450.34 17031.9,1445.31 17022.4,1442.88L16930.9,1424.13L16930.9,1390.28L17316.3,1390.28L17316.3,1424.13L17220.5,1442.88C17210.9,1444.79 17202.8,1449.82 17196,1457.98C17189.2,1466.14 17185.9,1475.52 17185.9,1486.11L17185.9,2328.12L17550.3,2328.12C17555.2,2328.12 17559.4,2326.73 17563,2324.13C17566.7,2321.53 17569.6,2318.05 17572,2314.06C17574.5,2309.89 17576.4,2305.73 17577.8,2301.38C17579.2,2297.05 17580.4,2293.23 17581.4,2289.93L17636.1,2099.82L17674.3,2099.82L17674.3,2382.98L16930.9,2382.98L16930.9,2349.13Z" style="fill:rgb(71,75,100);fill-rule:nonzero;"></path>                <path d="M17876,2349.13L17967.5,2329.68C17977,2327.26 17985.2,2322.22 17991.6,2314.58C17998,2306.94 18001.3,2297.74 18001.3,2287.15L18001.3,1486.11C18001.3,1475 17998,1465.62 17991.6,1457.98C17985.2,1450.34 17977,1445.31 17967.5,1442.88L17876,1424.13L17876,1390.28L18599.3,1390.28L18599.3,1622.91L18559,1622.91L18507.8,1469.44C18505.3,1462.32 18502,1456.25 18497.7,1451.38C18493.4,1446.53 18486.9,1444.27 18478.3,1444.27L18131,1444.27L18131,1838.36L18358.6,1838.36C18368.2,1838.36 18375.1,1836.28 18379.5,1831.94C18383.8,1827.6 18387.1,1822.05 18389.5,1815.45L18430.7,1697.39L18465.9,1697.39L18465.9,2035.24L18430.7,2035.24L18389.5,1918.57C18387.1,1910.93 18383.8,1904.86 18379.5,1900.17C18375.1,1895.65 18368.2,1893.4 18358.6,1893.4L18131,1893.4L18131,2328.47L18540.2,2328.47C18548.9,2328.47 18555.3,2326.21 18559.7,2321.7C18564,2317.18 18567.3,2310.93 18569.8,2303.3L18618,2129.68L18658.3,2129.68L18658.3,2383.33L17876,2383.33L17876,2349.13Z" style="fill:rgb(71,75,100);fill-rule:nonzero;"></path>                <path d="M18893.9,2349.13L18985.4,2325.34C18994.9,2322.91 19003.1,2317.7 19009.5,2309.89C19015.9,2302.08 19019.2,2293.05 19019.2,2282.81L19019.2,1489.06C19019.2,1477.95 19015.9,1468.75 19009.5,1461.28C19003.1,1453.82 18994.9,1448.95 18985.4,1446.53L18886.8,1424.13L18886.8,1390.28L19128.8,1390.28L19605,2074.65L19672.7,2173.26L19672.7,1490.45C19672.7,1479.34 19669.4,1470.13 19663,1462.67C19656.6,1455.2 19648.4,1450.34 19638.9,1447.91L19547.4,1424.13L19547.4,1390.28L19860.7,1390.28L19860.7,1424.13L19769.2,1447.91C19759.7,1450.34 19751.5,1455.38 19744.8,1463.02C19738,1470.65 19734.7,1479.86 19734.7,1490.45L19734.7,2218.05L19713.2,2390.28L19672.9,2390.28L19157.1,1649.82L19081.4,1539.58L19081.4,2282.99C19081.4,2294.09 19084.7,2303.3 19091.1,2310.76C19097.5,2318.23 19105.7,2323.09 19115.3,2325.52L19206.7,2349.3L19206.7,2383.16L18894.1,2383.16L18894.1,2349.3L18893.9,2349.13Z" style="fill:rgb(71,75,100);fill-rule:nonzero;"></path>                <path d="M20915.8,2189.24L20915.8,2249.83C20896.2,2266.67 20873.3,2284.03 20847.4,2302.09C20821.5,2320.14 20793.2,2336.64 20762.7,2351.74C20732.1,2366.84 20699.8,2379.34 20665.8,2389.24C20631.6,2399.14 20596.9,2403.99 20561.3,2403.99C20488.7,2403.99 20423.3,2392.19 20364.9,2368.41C20306.6,2344.62 20256.8,2310.59 20215.5,2266.15C20174.1,2221.7 20142.4,2167.71 20120,2103.99C20097.6,2040.45 20086.5,1968.75 20086.5,1889.07C20086.5,1809.38 20098.6,1741.84 20122.7,1677.95C20147,1614.07 20180.6,1559.38 20223.3,1513.72C20266,1468.06 20316.3,1432.64 20374.1,1407.47C20431.9,1382.29 20494.8,1369.62 20562.5,1369.62C20585.9,1369.62 20612,1371.36 20640.3,1374.66C20668.6,1378.13 20696.9,1382.29 20725.3,1387.68C20753.6,1392.88 20780.9,1398.96 20806.8,1405.73C20832.6,1412.5 20855.2,1419.1 20874.5,1425.87L20874.5,1655.73L20836.3,1655.73L20790.1,1529.69C20787.7,1520.49 20783.9,1513.89 20778.6,1509.55C20773.4,1505.21 20767.4,1501.22 20760.6,1497.22C20745.1,1488.54 20728,1480.38 20708.7,1472.74C20689.4,1465.11 20669.3,1458.16 20648.1,1452.26C20626.9,1446.36 20605.7,1441.67 20584.4,1438.2C20563,1434.9 20542.5,1433.16 20522.7,1433.16C20480,1433.16 20440.6,1442.19 20404.7,1460.24C20368.8,1478.3 20337.7,1505.21 20311.8,1541.32C20285.9,1577.43 20265.6,1622.4 20251.2,1676.39C20236.8,1730.38 20229.7,1793.41 20229.7,1865.45C20229.7,2015.8 20261.6,2128.65 20325.5,2203.99C20389.4,2279.34 20480.9,2317.01 20600,2317.01C20639.4,2317.01 20674.5,2312.85 20705.2,2304.34C20735.9,2296.01 20763.5,2285.42 20788,2272.74C20812.5,2260.07 20834,2246.18 20852.4,2231.25C20870.8,2216.32 20887.7,2202.43 20902.4,2189.41L20915.5,2189.41L20915.8,2189.24Z" style="fill:rgb(71,75,100);fill-rule:nonzero;"></path>                <path d="M21132.6,2349.13L21224.1,2329.68C21233.6,2327.26 21241.8,2322.22 21248.2,2314.58C21254.7,2306.94 21258,2297.74 21258,2287.15L21258,1486.11C21258,1475 21254.7,1465.62 21248.2,1457.98C21241.8,1450.34 21233.6,1445.31 21224.1,1442.88L21132.6,1424.13L21132.6,1390.28L21855.9,1390.28L21855.9,1622.91L21815.6,1622.91L21764.4,1469.44C21761.9,1462.32 21758.6,1456.25 21754.3,1451.38C21750,1446.53 21743.5,1444.27 21734.9,1444.27L21387.6,1444.27L21387.6,1838.36L21615.2,1838.36C21624.8,1838.36 21631.7,1836.28 21636.1,1831.94C21640.4,1827.6 21643.7,1822.05 21646.1,1815.45L21687.1,1697.39L21722.4,1697.39L21722.4,2035.24L21687.1,2035.24L21646.1,1918.57C21643.7,1910.93 21640.4,1904.86 21636.1,1900.17C21631.7,1895.65 21624.8,1893.4 21615.2,1893.4L21387.6,1893.4L21387.6,2328.47L21796.8,2328.47C21805.5,2328.47 21811.9,2326.21 21816.3,2321.7C21820.6,2317.18 21823.9,2310.93 21826.4,2303.3L21874.6,2129.68L21914.9,2129.68L21914.9,2383.33L21132.6,2383.33L21132.6,2349.13Z" style="fill:rgb(71,75,100);fill-rule:nonzero;"></path>            </g>            <g transform="matrix(0.0358428,0,0,0.0358428,76.6499,1421.19)">                <path d="M7709.04,5441.67L7854.52,5399.31C7877.09,5392.54 7897.06,5379.87 7914.59,5361.29C7931.96,5342.71 7945.32,5322.22 7954.35,5299.66L8625.88,3544.1L8830.57,3155.03L8896.54,3155.03L9725.36,5299.65C9734.39,5322.22 9747.58,5342.71 9765.11,5361.28C9782.65,5379.86 9802.61,5392.53 9825.18,5399.3L9970.67,5441.67L9970.67,5521.18L9147.06,5521.18L9147.06,5441.67L9441.33,5385.94L9160.6,4655.21L8342.02,4655.21L8079.87,5379.17L8367.37,5441.67L8367.37,5521.18L7709.39,5521.18L7709.39,5441.67L7709.04,5441.67L7709.04,5441.67ZM9107.82,4526.74L8830.39,3813.02L8745.84,3584.72L8744.1,3584.72L8393.93,4526.74L9107.82,4526.74Z" style="fill:rgb(71,75,100);fill-rule:nonzero;"></path>                <path d="M10101.4,3408.68C10094.6,3386.11 10082,3365.8 10063.4,3347.74C10044.8,3329.69 10024.1,3317.19 10001.6,3310.59L9866.33,3269.97L9866.33,3190.45L10673.1,3190.45L10673.1,3269.97L10382.1,3325.87L10815.1,4765.11L10909.9,5077.95L11366.5,3608.16L11542.4,3190.46L11645.5,3190.46L12119.1,4741.33L12225.7,5091.5L12778.7,3332.47L12491.2,3269.79L12491.2,3190.28L13147.4,3190.28L13147.4,3269.79L13012.2,3310.42C12989.6,3317.19 12969.1,3330.73 12950.5,3351.04C12932,3371.35 12918.6,3392.71 12910.8,3415.28L12354.4,5126.91L12180.2,5544.62L12070.3,5544.62L11559.6,3893.93L11493.6,3668.93L11037,5126.74L10861.1,5544.45L10746,5544.45L10101.8,3408.34L10101.4,3408.68L10101.4,3408.68Z" style="fill:rgb(71,75,100);fill-rule:nonzero;"></path>                <path d="M13023.1,5441.67L13168.6,5399.31C13191.2,5392.54 13211.1,5379.87 13228.7,5361.29C13246.2,5342.71 13259.4,5322.22 13268.4,5299.66L13939.8,3544.1L14144.5,3155.03L14210.4,3155.03L15039.2,5299.65C15048.3,5322.22 15061.5,5342.71 15079,5361.28C15096.4,5379.86 15116.5,5392.53 15139.1,5399.3L15284.6,5441.67L15284.6,5521.18L14460.8,5521.18L14460.8,5441.67L14755,5385.94L14474.3,4655.21L13655.7,4655.21L13393.6,5379.17L13681.1,5441.67L13681.1,5521.18L13023.1,5521.18L13023.1,5441.67L13023.1,5441.67ZM14421.9,4526.74L14144.5,3813.02L14059.9,3584.72L14058.2,3584.72L13708.2,4526.74L14421.9,4526.74Z" style="fill:rgb(71,75,100);fill-rule:nonzero;"></path>                <path d="M15461.1,5441.67L15675.9,5396.01C15698.4,5390.45 15717.2,5378.47 15732.5,5360.6C15747.7,5342.54 15755.2,5321.18 15755.2,5296.36L15755.2,3415.63C15755.2,3389.59 15747.6,3367.71 15732.5,3349.66C15717.2,3331.6 15698.2,3319.79 15675.9,3314.07L15461.1,3270.14L15461.1,3190.63L16317,3190.63C16431.9,3190.63 16532.8,3198.44 16619.8,3214.24C16706.6,3230.03 16781.2,3251.74 16843.9,3279.34C16906.4,3306.95 16958.3,3339.07 16999.5,3375.7C17040.6,3412.33 17073.2,3452.09 17097.6,3494.97C17121.9,3537.85 17138.7,3582.64 17148.2,3629.34C17157.8,3676.04 17162.7,3722.74 17162.7,3768.93C17162.7,3864.76 17145.5,3949.83 17111.1,4024.31C17076.7,4098.61 17033.3,4162.5 16980.9,4215.45C16928.5,4268.41 16871.2,4311.64 16809.2,4344.79C16747.2,4378.13 16689,4401.39 16635.1,4414.93L17276,5260.59C17286.3,5274.14 17298.6,5288.54 17313.4,5303.65C17327.9,5318.93 17343.2,5332.99 17359,5346.01C17374.8,5359.03 17391,5370.32 17407.3,5379.86C17423.6,5389.41 17439,5396.01 17453.8,5399.31L17643.2,5441.67L17643.2,5521.18L17286.4,5521.18C17235.8,5521.18 17193.7,5517.19 17160.4,5509.38C17127.1,5501.57 17098.1,5488.72 17073.2,5471.36C17048.4,5453.99 17025.5,5431.95 17004.8,5405.39C16984,5378.82 16960.1,5347.05 16933,5309.9L16334.2,4482.82L16060.2,4430.39L16060.2,5296.36C16060.2,5322.4 16066.7,5343.75 16079.7,5360.59C16092.7,5377.43 16110.4,5389.24 16133,5396.01L16383.3,5441.67L16383.3,5521.18L15461.4,5521.18L15461.4,5441.67L15461.1,5441.67L15461.1,5441.67ZM16059.9,4325.35C16072.2,4328.82 16089.7,4331.6 16112.3,4333.86C16134.9,4336.12 16159,4338.2 16185.1,4339.76C16210.9,4341.5 16236.1,4342.71 16260.4,4343.23C16284.5,4343.75 16304.7,4344.1 16320.5,4344.1C16408.5,4344.1 16484.9,4329.69 16549.6,4300.87C16614.6,4272.23 16668.2,4234.03 16711.1,4186.64C16754,4139.24 16786.1,4084.72 16807.5,4022.58C16828.8,3960.6 16839.6,3895.66 16839.6,3828.13C16839.6,3738.03 16827.2,3660.42 16802.4,3595.66C16777.6,3530.73 16741.8,3477.61 16695,3435.77C16648.2,3394.1 16590.4,3363.37 16521.7,3343.58C16452.9,3323.79 16374.5,3313.89 16286.6,3313.89L16060.1,3313.89L16060.1,4325.35L16059.9,4325.35L16059.9,4325.35Z" style="fill:rgb(71,75,100);fill-rule:nonzero;"></path>                <path d="M17792.4,5441.67L18007.2,5396.01C18029.7,5390.45 18048.7,5378.47 18063.8,5360.6C18078.9,5342.71 18086.7,5321.18 18086.7,5296.36L18086.7,3415.63C18086.7,3389.59 18079,3367.71 18063.8,3349.66C18048.5,3331.6 18029.7,3319.79 18007.2,3314.07L17792.4,3270.14L17792.4,3190.63L18758.2,3190.63C18833.7,3190.63 18915,3197.92 19001.8,3212.68C19088.6,3227.43 19174.9,3252.09 19260.6,3287.16C19346.2,3322.05 19428.7,3368.58 19507.7,3426.74C19586.5,3484.72 19656.5,3557.29 19717.4,3644.1C19778.3,3730.91 19826.8,3833.86 19862.9,3952.78C19899,4071.7 19917,4209.03 19917,4364.59C19917,4563.02 19886.3,4734.9 19824.9,4880.39C19763.4,5025.87 19679.7,5146.01 19573.7,5240.63C19467.7,5335.42 19344,5405.91 19202.5,5452.09C19061,5498.27 18910.8,5521.36 18751.8,5521.36L17792.7,5521.36L17792.7,5441.84L17792.4,5441.67L17792.4,5441.67ZM18780.1,5396.01C18915.3,5396.01 19032.9,5373.96 19132.7,5330.04C19232.5,5286.12 19315.7,5222.4 19382.2,5138.89C19448.7,5055.56 19498.3,4952.78 19530.9,4831.08C19563.6,4709.38 19580.1,4571.18 19580.1,4416.67C19580.1,4246.36 19558.4,4093.41 19515,3957.47C19471.6,3821.53 19410.3,3706.08 19331.5,3610.77C19252.5,3515.45 19157.5,3442.19 19046.6,3390.8C18935.5,3339.59 18812.9,3313.89 18678.7,3313.89L18391.2,3313.89L18391.2,5395.84L18780.2,5395.84L18780.1,5396.02L18780.1,5396.01Z" style="fill:rgb(71,75,100);fill-rule:nonzero;"></path>                <path d="M20338.7,4824.29L20428.3,4824.29L20562,5160.92C20567.5,5174.47 20578.6,5190.27 20595,5208.32C20611.3,5226.37 20625.7,5239.39 20638,5247.21C20678.6,5273.25 20722.6,5296.86 20770,5318.22C20817.3,5339.57 20864.7,5357.97 20912,5373.25C20959.4,5388.53 21004.5,5400.33 21047.2,5408.66C21090.1,5417.17 21127.8,5421.34 21160.6,5421.34C21231.6,5421.34 21296.2,5411.1 21354.2,5390.78C21412.1,5370.47 21461.8,5340.96 21502.9,5302.07C21544.1,5263.18 21575.7,5215.27 21597.6,5158.32C21619.6,5101.37 21630.5,5036.27 21630.5,4963.01C21630.5,4859.19 21602.4,4774.47 21546,4708.49C21489.6,4642.52 21413.5,4589.22 21317.7,4548.6C21274.8,4530.54 21232.6,4515.61 21190.8,4503.81C21149.1,4492 21107.1,4480.37 21064.7,4469.08C21022.4,4457.8 20980.2,4446.16 20937.8,4434.36C20895.5,4422.56 20853.5,4408.14 20811.8,4391.31C20685.4,4340.61 20587.7,4267.87 20518.4,4173.08C20449.1,4078.29 20414.4,3963.35 20414.4,3828.11C20414.4,3732.28 20433,3642.35 20470.1,3558.32C20507.3,3474.29 20558.8,3401.03 20624.8,3338.53C20690.8,3276.03 20768.9,3226.89 20859,3191.31C20949.1,3155.72 21046.7,3138.01 21151.5,3138.01C21209,3138.01 21266,3141.13 21322.4,3147.38C21378.8,3153.63 21434,3161.79 21488.2,3171.86C21542.3,3182.1 21594.8,3194.08 21645.5,3208.32C21696.2,3222.38 21745.3,3237.31 21792.7,3253.11L21792.7,3802.76L21703.1,3802.76L21586.4,3489.91C21580.9,3473.08 21570.5,3457.8 21555.2,3444.26C21539.9,3430.72 21526.2,3419.43 21513.9,3410.4C21486.8,3390.09 21455.2,3372.56 21419.1,3357.97C21383,3343.39 21346.2,3330.89 21308.3,3320.82C21270.5,3310.75 21233.7,3303.11 21197.6,3298.08C21161.4,3293.04 21130.4,3290.44 21104.5,3290.44C21038,3290.44 20978.5,3299.81 20926,3318.39C20873.6,3336.97 20829.3,3362.66 20793.2,3395.3C20757.1,3427.94 20729.2,3467.52 20709.5,3513.7C20689.7,3559.88 20680,3610.06 20680,3664.22C20680,3711.62 20684.5,3757.8 20693.6,3802.94C20702.6,3848.08 20718.9,3890.43 20742.5,3929.85C20766.1,3969.26 20798.6,4005.72 20839.7,4039.05C20880.9,4072.38 20933,4100.16 20996.2,4122.73C21036.8,4137.48 21077.1,4150.33 21117.2,4161.62C21157.1,4172.9 21197.6,4184.19 21238.2,4195.47C21278.8,4206.76 21320.3,4219.08 21362.5,4232.62C21404.8,4246.16 21448.9,4262.49 21495.3,4281.76C21547,4303.11 21598.2,4328.81 21648.4,4358.66C21698.6,4388.53 21743.4,4425.51 21782.8,4469.43C21822.2,4513.35 21854.2,4565.79 21878.3,4626.72C21902.6,4687.66 21914.7,4759.88 21914.7,4843.22C21914.7,4932.28 21898.6,5020.47 21866.5,5107.97C21834.4,5195.47 21783.7,5273.42 21714.2,5342.17C21644.8,5410.92 21556.1,5466.83 21447.9,5509.54C21339.6,5552.41 21210.1,5573.77 21058.8,5573.77C21009.2,5573.77 20957.1,5569.43 20902.4,5561.1C20847.7,5552.59 20791.3,5541.65 20733.3,5528.11C20675.3,5514.57 20616.3,5498.77 20556.6,5480.72C20496.9,5462.66 20437.7,5444.08 20379,5424.99L20338.4,4824.64L20338.7,4824.29Z" style="fill:rgb(71,75,100);fill-rule:nonzero;"></path>            </g>            <g transform="matrix(0.0358428,0,0,0.0358428,76.6499,1421.19)">                <path d="M3478.82,3334.55L3542.88,3158.68L3606.42,3327.78L4326.04,5539.93L6430.21,5539.93C6815.28,4978.12 7040.63,4298.26 7040.63,3565.63C7040.63,1634.38 5475.01,68.749 3543.75,68.749C1612.5,68.749 46.868,1634.37 46.868,3565.63C46.868,4298.27 272.389,4978.13 657.285,5539.93L2761.45,5539.93L3478.82,3334.55L3478.82,3334.55Z" style="fill:rgb(71,75,100);fill-rule:nonzero;"></path>            </g>        </g>    </g></svg>